<svg width="137" height="32" viewBox="0 0 137 32" fill="none" xmlns="http://www.w3.org/2000/svg">
<path fill-rule="evenodd" clip-rule="evenodd" d="M14.3923 0.523926V5.02892C11.505 5.02892 8.73587 6.18479 6.6942 8.24226C4.65254 10.2997 3.50554 13.0902 3.50554 15.9999C3.50554 18.9096 4.65254 21.7001 6.6942 23.7576C8.73587 25.815 11.505 26.9709 14.3923 26.9709V31.4759H0.297363V0.523926H14.3923ZM14.3923 26.9709L14.3923 5.02893C17.2796 5.02893 20.0487 6.1848 22.0904 8.24226C24.132 10.2997 25.279 13.0902 25.279 15.9999C25.279 18.9096 24.132 21.7001 22.0904 23.7576C20.0487 25.8151 17.2796 26.9709 14.3923 26.9709ZM36.3447 7.78491H33.1891V23.1019H36.3447V7.78491ZM39.0447 14.7599C38.4365 15.6757 38.1118 16.7529 38.1118 17.8549C38.1019 18.5858 38.237 19.3112 38.5091 19.9888C38.7811 20.6664 39.1847 21.2824 39.6961 21.8007C40.2075 22.319 40.8165 22.7292 41.4873 23.0073C42.1581 23.2853 42.8772 23.4256 43.6025 23.4199C44.696 23.4262 45.7668 23.1052 46.6791 22.4975C47.5913 21.8899 48.304 21.023 48.7268 20.0067C49.1497 18.9904 49.2635 17.8704 49.054 16.7888C48.8445 15.7072 48.3211 14.7127 47.5501 13.9312C46.779 13.1498 45.7951 12.6166 44.723 12.3993C43.651 12.1819 42.539 12.2903 41.5281 12.7105C40.5172 13.1308 39.6529 13.844 39.0447 14.7599ZM45.5873 16.53C45.8582 16.9189 46.0094 17.3798 46.0218 17.8549H46.0007C46.0182 18.1781 45.9692 18.5014 45.857 18.8046C45.7449 19.1079 45.5718 19.3845 45.3487 19.6173C45.1256 19.8501 44.8572 20.034 44.5604 20.1576C44.2635 20.2811 43.9446 20.3416 43.6235 20.3353C43.1519 20.3351 42.6908 20.1948 42.2979 19.932C41.905 19.6691 41.5977 19.2954 41.4145 18.8575C41.2313 18.4195 41.1802 17.9369 41.2678 17.4699C41.3553 17.0029 41.5775 16.5723 41.9067 16.2319C42.2358 15.8915 42.6572 15.6565 43.1182 15.5561C43.5791 15.4558 44.0592 15.4947 44.4984 15.6679C44.9376 15.8411 45.3163 16.141 45.5873 16.53ZM61.5789 12.6079V22.5825C61.5789 26.1017 58.844 27.5963 56.0776 27.5963C55.1019 27.677 54.1231 27.4816 53.2516 27.0321C52.38 26.5827 51.6502 25.897 51.1444 25.0523L53.8056 23.5047C54.0213 23.9428 54.3643 24.3043 54.789 24.541C55.2137 24.7778 55.6999 24.8784 56.1828 24.8297C56.4905 24.8679 56.8027 24.8371 57.0971 24.7395C57.3916 24.6419 57.661 24.48 57.8861 24.2653C58.1113 24.0506 58.2865 23.7884 58.3994 23.4975C58.5122 23.2066 58.5599 22.8941 58.539 22.5825V21.6179C58.1718 22.0665 57.7058 22.4228 57.1782 22.6583C56.6505 22.8938 56.0756 23.0021 55.4991 22.9747C54.1043 22.9747 52.7665 22.4163 51.7802 21.4223C50.7939 20.4284 50.2398 19.0803 50.2398 17.6747C50.2398 16.269 50.7939 14.9209 51.7802 13.927C52.7665 12.9331 54.1043 12.3747 55.4991 12.3747C56.0756 12.3472 56.6505 12.4555 57.1782 12.691C57.7058 12.9266 58.1718 13.2828 58.539 13.7315V12.6715L61.5789 12.6079ZM58.539 17.6429C58.56 17.1357 58.4299 16.6339 58.1656 16.2018C57.9013 15.7697 57.5148 15.4272 57.0557 15.2183C56.5967 15.0094 56.0861 14.9437 55.5897 15.0295C55.0933 15.1154 54.6337 15.3489 54.27 15.7001C53.9064 16.0513 53.6553 16.5041 53.549 17.0003C53.4428 17.4964 53.4863 18.0133 53.6739 18.4843C53.8614 18.9554 54.1846 19.3591 54.6017 19.6436C55.0188 19.9282 55.5108 20.0804 56.0145 20.0809C56.3432 20.1047 56.6732 20.0588 56.9831 19.9462C57.2931 19.8336 57.5762 19.6566 57.8141 19.4269C58.052 19.1971 58.2394 18.9196 58.3643 18.6123C58.4892 18.305 58.5487 17.9748 58.539 17.6429ZM64.2879 14.762C63.6806 15.6774 63.3564 16.7537 63.3564 17.8549C63.348 18.5871 63.4847 19.3137 63.7586 19.992C64.0325 20.6704 64.438 21.2868 64.9513 21.8051C65.4647 22.3234 66.0756 22.7332 66.7482 23.0105C67.4208 23.2878 68.1415 23.427 68.8682 23.4199C69.9608 23.4219 71.0296 23.0973 71.9391 22.4871C72.8486 21.8769 73.558 21.0085 73.9776 19.9918C74.3972 18.9752 74.508 17.8559 74.2962 16.7757C74.0843 15.6955 73.5592 14.7029 72.7873 13.9236C72.0154 13.1442 71.0314 12.6132 69.9599 12.3976C68.8884 12.182 67.7775 12.2916 66.7679 12.7125C65.7582 13.1333 64.8951 13.8466 64.2879 14.762ZM70.8312 16.5288C71.1026 16.918 71.254 17.3793 71.2664 17.8549H71.2559C71.2733 18.178 71.2244 18.5013 71.1122 18.8046C71 19.1078 70.827 19.3845 70.6039 19.6173C70.3808 19.8501 70.1124 20.034 69.8156 20.1575C69.5187 20.2811 69.1998 20.3416 68.8787 20.3353C68.4067 20.3372 67.9446 20.1987 67.5503 19.9371C67.156 19.6755 66.8471 19.3025 66.6623 18.8648C66.4774 18.427 66.4249 17.9441 66.5113 17.4764C66.5976 17.0087 66.819 16.5771 67.1477 16.2357C67.4763 15.8942 67.8977 15.6581 68.359 15.557C68.8202 15.4558 69.3008 15.494 69.7406 15.6669C70.1804 15.8398 70.5598 16.1396 70.8312 16.5288ZM75.8421 9.79885C75.8421 9.42568 75.9519 9.06088 76.1576 8.7506C76.3634 8.44032 76.6558 8.19848 76.9979 8.05567C77.34 7.91287 77.7165 7.8755 78.0797 7.9483C78.4429 8.02111 78.7765 8.20081 79.0383 8.46468C79.3002 8.72855 79.4785 9.06475 79.5508 9.43075C79.623 9.79676 79.5859 10.1761 79.4442 10.5209C79.3025 10.8657 79.0625 11.1603 78.7546 11.3677C78.4467 11.575 78.0847 11.6857 77.7144 11.6857C77.2195 11.6801 76.7465 11.4796 76.3965 11.1269C76.0466 10.7743 75.8476 10.2976 75.8421 9.79885ZM76.1471 12.6079H79.3027V23.1019H76.1471V12.6079ZM92.5086 19.9089C92.742 19.2509 92.844 18.5528 92.8086 17.8549C92.8397 17.1596 92.7346 16.4649 92.4993 15.8106C92.2639 15.1562 91.903 14.5549 91.4371 14.0411C90.9712 13.5273 90.4094 13.111 89.7839 12.816C89.1583 12.521 88.4812 12.353 87.7912 12.3217C87.2041 12.2802 86.6153 12.3731 86.0688 12.5933C85.5223 12.8136 85.0324 13.1556 84.6356 13.5937V12.6079H81.48V27.3207H84.6356V22.1373C85.0319 22.5767 85.5214 22.9203 86.0678 23.1424C86.6142 23.3644 87.2033 23.4593 87.7912 23.4199C88.484 23.3887 89.1638 23.2197 89.7915 22.9227C90.4192 22.6257 90.9824 22.2065 91.4487 21.6893C91.915 21.172 92.2753 20.567 92.5086 19.9089ZM89.2036 16.4818C89.4842 16.8849 89.6406 17.3626 89.653 17.8549C89.677 18.1917 89.6301 18.5297 89.5154 18.847C89.4007 19.1642 89.2207 19.4534 88.9874 19.6956C88.7539 19.9378 88.4724 20.1275 88.1611 20.2524C87.8498 20.3773 87.5159 20.4344 87.1811 20.4201C86.6924 20.422 86.2141 20.2786 85.8059 20.0077C85.3978 19.7368 85.0781 19.3505 84.8869 18.8973C84.6957 18.4441 84.6415 17.9441 84.7311 17.4599C84.8207 16.9758 85.0501 16.5291 85.3905 16.1758C85.731 15.8225 86.1673 15.5783 86.6449 15.4738C87.1225 15.3694 87.6201 15.4093 88.0752 15.5886C88.5304 15.7679 88.9229 16.0786 89.2036 16.4818ZM102.412 19.9537C102.412 22.3705 100.308 23.3987 98.0784 23.3987C97.1689 23.4812 96.2557 23.2869 95.4569 22.841C94.6581 22.395 94.0104 21.7179 93.5975 20.8971L96.3113 19.3495C96.4188 19.7277 96.6519 20.0573 96.9717 20.283C97.2914 20.5088 97.6784 20.617 98.0679 20.5897C98.8147 20.5897 99.1934 20.3565 99.1934 19.9325C99.1934 19.516 98.5276 19.3295 97.6762 19.091C96.1657 18.6679 94.0708 18.0812 94.0708 15.7561C94.0708 13.4665 95.9852 12.3217 98.152 12.3217C98.9757 12.2845 99.7939 12.4728 100.52 12.8666C101.246 13.2604 101.853 13.845 102.275 14.5583L99.5615 15.9999C99.4417 15.7264 99.2457 15.4938 98.9975 15.3302C98.7492 15.1665 98.4592 15.0788 98.1626 15.0777C97.6156 15.0777 97.2895 15.2897 97.2895 15.6607C97.2895 16.0935 97.9467 16.2693 98.7904 16.495C100.302 16.8993 102.412 17.4637 102.412 19.9537ZM113.846 23.1019V12.6079H110.732V18.3849C110.732 19.8265 109.933 20.5049 108.797 20.5049C108.548 20.52 108.298 20.4803 108.066 20.3887C107.833 20.2971 107.623 20.1557 107.45 19.9742C107.277 19.7928 107.145 19.5757 107.063 19.3379C106.982 19.1001 106.952 18.8473 106.977 18.5969V12.6079H103.822V19.0739C103.822 21.9041 105.62 23.4199 107.724 23.4199C108.285 23.452 108.846 23.3508 109.361 23.1243C109.877 22.8978 110.332 22.5525 110.69 22.1161V23.1019H113.846ZM131.727 16.657V23.1018H128.572V16.9326C128.572 15.8726 128.077 15.2154 127.078 15.2154C126.079 15.2154 125.448 15.9468 125.448 17.187V23.1018H122.292V16.9326C122.292 15.8726 121.798 15.2154 120.799 15.2154C119.799 15.2154 119.168 15.9468 119.168 17.187V23.1018H116.013V12.6078H119.168V13.5724C119.495 13.1463 119.922 12.8088 120.41 12.5904C120.899 12.3721 121.433 12.2797 121.966 12.3216C122.5 12.2936 123.032 12.4059 123.509 12.6475C123.987 12.889 124.394 13.2516 124.69 13.6996C125.037 13.2316 125.496 12.8597 126.024 12.6187C126.552 12.3777 127.132 12.2755 127.709 12.3216C130.171 12.3216 131.727 14.0388 131.727 16.657ZM136.692 10.2123C136.692 11.5002 135.656 12.5443 134.378 12.5443C133.1 12.5443 132.064 11.5002 132.064 10.2123C132.064 8.92432 133.1 7.88025 134.378 7.88025C135.656 7.88025 136.692 8.92432 136.692 10.2123Z" fill="white" fill-opacity="0.45"/>
</svg>
